<?xml version="1.0" encoding="UTF-8"?>
<!--Generator: Apple Native CoreSVG 123-->
<!DOCTYPE svg
PUBLIC "-//W3C//DTD SVG 1.1//EN"
       "http://www.w3.org/Graphics/SVG/1.1/DTD/svg11.dtd">
<svg version="1.1" xmlns="http://www.w3.org/2000/svg" xmlns:xlink="http://www.w3.org/1999/xlink" width="3300" height="2200">
 <!--glyph: "uni100707.medium", point size: 100.000000, font version: "Version 15.0d7e11", template writer version: "5"-->
 <g id="Notes">
  <rect height="2200" id="artboard" style="fill:white;opacity:1" width="3300" x="0" y="0"/>
  <line id="" style="fill:none;stroke:black;opacity:1;stroke-width:0.5;" x1="263" x2="3036" y1="292" y2="292"/>
  <text style="stroke:none;fill:black;font-family:-apple-system,&quot;SF Pro Display&quot;,&quot;SF Pro Text&quot;,Helvetica,sans-serif;font-weight:bold;" transform="matrix(1 0 0 1 263 322)">Weight/Scale Variations</text>
  <text style="stroke:none;fill:black;font-family:-apple-system,&quot;SF Pro Display&quot;,&quot;SF Pro Text&quot;,Helvetica,sans-serif;text-anchor:middle;" transform="matrix(1 0 0 1 559.711 322)">Ultralight</text>
  <text style="stroke:none;fill:black;font-family:-apple-system,&quot;SF Pro Display&quot;,&quot;SF Pro Text&quot;,Helvetica,sans-serif;text-anchor:middle;" transform="matrix(1 0 0 1 856.422 322)">Thin</text>
  <text style="stroke:none;fill:black;font-family:-apple-system,&quot;SF Pro Display&quot;,&quot;SF Pro Text&quot;,Helvetica,sans-serif;text-anchor:middle;" transform="matrix(1 0 0 1 1153.13 322)">Light</text>
  <text style="stroke:none;fill:black;font-family:-apple-system,&quot;SF Pro Display&quot;,&quot;SF Pro Text&quot;,Helvetica,sans-serif;text-anchor:middle;" transform="matrix(1 0 0 1 1449.84 322)">Regular</text>
  <text style="stroke:none;fill:black;font-family:-apple-system,&quot;SF Pro Display&quot;,&quot;SF Pro Text&quot;,Helvetica,sans-serif;text-anchor:middle;" transform="matrix(1 0 0 1 1746.56 322)">Medium</text>
  <text style="stroke:none;fill:black;font-family:-apple-system,&quot;SF Pro Display&quot;,&quot;SF Pro Text&quot;,Helvetica,sans-serif;text-anchor:middle;" transform="matrix(1 0 0 1 2043.27 322)">Semibold</text>
  <text style="stroke:none;fill:black;font-family:-apple-system,&quot;SF Pro Display&quot;,&quot;SF Pro Text&quot;,Helvetica,sans-serif;text-anchor:middle;" transform="matrix(1 0 0 1 2339.98 322)">Bold</text>
  <text style="stroke:none;fill:black;font-family:-apple-system,&quot;SF Pro Display&quot;,&quot;SF Pro Text&quot;,Helvetica,sans-serif;text-anchor:middle;" transform="matrix(1 0 0 1 2636.69 322)">Heavy</text>
  <text style="stroke:none;fill:black;font-family:-apple-system,&quot;SF Pro Display&quot;,&quot;SF Pro Text&quot;,Helvetica,sans-serif;text-anchor:middle;" transform="matrix(1 0 0 1 2933.4 322)">Black</text>
  <line id="" style="fill:none;stroke:black;opacity:1;stroke-width:0.5;" x1="263" x2="3036" y1="1903" y2="1903"/>
  <g id="" transform="matrix(1 0 0 1 263 1933)">
   <path d="M 9.24805 0.830078 C 13.5547 0.830078 17.1387 -2.74414 17.1387 -7.05078 C 17.1387 -11.3574 13.5449 -14.9316 9.23828 -14.9316 C 4.94141 -14.9316 1.36719 -11.3574 1.36719 -7.05078 C 1.36719 -2.74414 4.95117 0.830078 9.24805 0.830078 Z M 9.24805 -0.654297 C 5.70312 -0.654297 2.87109 -3.49609 2.87109 -7.05078 C 2.87109 -10.6055 5.69336 -13.4473 9.23828 -13.4473 C 12.793 -13.4473 15.6348 -10.6055 15.6445 -7.05078 C 15.6543 -3.49609 12.8027 -0.654297 9.24805 -0.654297 Z M 9.22852 -3.42773 C 9.69727 -3.42773 9.9707 -3.74023 9.9707 -4.25781 L 9.9707 -6.31836 L 12.1973 -6.31836 C 12.6953 -6.31836 13.0371 -6.57227 13.0371 -7.04102 C 13.0371 -7.51953 12.7148 -7.7832 12.1973 -7.7832 L 9.9707 -7.7832 L 9.9707 -10.0098 C 9.9707 -10.5273 9.69727 -10.8496 9.22852 -10.8496 C 8.75977 -10.8496 8.50586 -10.5078 8.50586 -10.0098 L 8.50586 -7.7832 L 6.29883 -7.7832 C 5.78125 -7.7832 5.44922 -7.51953 5.44922 -7.04102 C 5.44922 -6.57227 5.80078 -6.31836 6.29883 -6.31836 L 8.50586 -6.31836 L 8.50586 -4.25781 C 8.50586 -3.75977 8.75977 -3.42773 9.22852 -3.42773 Z"/>
  </g>
  <g id="" transform="matrix(1 0 0 1 281.506 1933)">
   <path d="M 11.709 2.91016 C 17.1582 2.91016 21.6699 -1.60156 21.6699 -7.05078 C 21.6699 -12.4902 17.1484 -17.0117 11.6992 -17.0117 C 6.25977 -17.0117 1.74805 -12.4902 1.74805 -7.05078 C 1.74805 -1.60156 6.26953 2.91016 11.709 2.91016 Z M 11.709 1.25 C 7.09961 1.25 3.41797 -2.44141 3.41797 -7.05078 C 3.41797 -11.6504 7.08984 -15.3516 11.6992 -15.3516 C 16.3086 -15.3516 20 -11.6504 20.0098 -7.05078 C 20.0195 -2.44141 16.3184 1.25 11.709 1.25 Z M 11.6895 -2.41211 C 12.207 -2.41211 12.5195 -2.77344 12.5195 -3.33984 L 12.5195 -6.23047 L 15.5762 -6.23047 C 16.123 -6.23047 16.5039 -6.51367 16.5039 -7.03125 C 16.5039 -7.55859 16.1426 -7.86133 15.5762 -7.86133 L 12.5195 -7.86133 L 12.5195 -10.9277 C 12.5195 -11.5039 12.207 -11.8555 11.6895 -11.8555 C 11.1719 -11.8555 10.8789 -11.4844 10.8789 -10.9277 L 10.8789 -7.86133 L 7.83203 -7.86133 C 7.26562 -7.86133 6.89453 -7.55859 6.89453 -7.03125 C 6.89453 -6.51367 7.28516 -6.23047 7.83203 -6.23047 L 10.8789 -6.23047 L 10.8789 -3.33984 C 10.8789 -2.79297 11.1719 -2.41211 11.6895 -2.41211 Z"/>
  </g>
  <g id="" transform="matrix(1 0 0 1 304.924 1933)">
   <path d="M 14.9707 5.67383 C 21.9336 5.67383 27.6953 -0.078125 27.6953 -7.04102 C 27.6953 -14.0039 21.9238 -19.7559 14.9609 -19.7559 C 8.00781 -19.7559 2.25586 -14.0039 2.25586 -7.04102 C 2.25586 -0.078125 8.01758 5.67383 14.9707 5.67383 Z M 14.9707 3.85742 C 8.93555 3.85742 4.08203 -1.00586 4.08203 -7.04102 C 4.08203 -13.0762 8.92578 -17.9395 14.9609 -17.9395 C 21.0059 -17.9395 25.8594 -13.0762 25.8691 -7.04102 C 25.8789 -1.00586 21.0156 3.85742 14.9707 3.85742 Z M 14.9512 -1.06445 C 15.5176 -1.06445 15.8691 -1.45508 15.8691 -2.06055 L 15.8691 -6.13281 L 20.1074 -6.13281 C 20.6934 -6.13281 21.1133 -6.46484 21.1133 -7.02148 C 21.1133 -7.59766 20.7227 -7.93945 20.1074 -7.93945 L 15.8691 -7.93945 L 15.8691 -12.1875 C 15.8691 -12.8027 15.5176 -13.1934 14.9512 -13.1934 C 14.3848 -13.1934 14.0625 -12.7832 14.0625 -12.1875 L 14.0625 -7.93945 L 9.83398 -7.93945 C 9.21875 -7.93945 8.80859 -7.59766 8.80859 -7.02148 C 8.80859 -6.46484 9.23828 -6.13281 9.83398 -6.13281 L 14.0625 -6.13281 L 14.0625 -2.06055 C 14.0625 -1.47461 14.3848 -1.06445 14.9512 -1.06445 Z"/>
  </g>
  <text style="stroke:none;fill:black;font-family:-apple-system,&quot;SF Pro Display&quot;,&quot;SF Pro Text&quot;,Helvetica,sans-serif;font-weight:bold;" transform="matrix(1 0 0 1 263 1953)">Design Variations</text>
  <text style="stroke:none;fill:black;font-family:-apple-system,&quot;SF Pro Display&quot;,&quot;SF Pro Text&quot;,Helvetica,sans-serif;" transform="matrix(1 0 0 1 263 1971)">Symbols are supported in up to nine weights and three scales.</text>
  <text style="stroke:none;fill:black;font-family:-apple-system,&quot;SF Pro Display&quot;,&quot;SF Pro Text&quot;,Helvetica,sans-serif;" transform="matrix(1 0 0 1 263 1989)">For optimal layout with text and other symbols, vertically align</text>
  <text style="stroke:none;fill:black;font-family:-apple-system,&quot;SF Pro Display&quot;,&quot;SF Pro Text&quot;,Helvetica,sans-serif;" transform="matrix(1 0 0 1 263 2007)">symbols with the adjacent text.</text>
  <rect height="14" id="" style="fill:#00AEEF;stroke:none;opacity:0.4;" width="3" x="776" y="1919"/>
  <g id="" transform="matrix(1 0 0 1 779 1933)">
   <path d="M 10.5273 0 L 12.373 0 L 7.17773 -14.0918 L 5.43945 -14.0918 L 0.244141 0 L 2.08984 0 L 3.50586 -4.0332 L 9.11133 -4.0332 Z M 6.2793 -11.9531 L 6.33789 -11.9531 L 8.59375 -5.52734 L 4.02344 -5.52734 Z"/>
  </g>
  <rect height="14" id="" style="fill:#00AEEF;stroke:none;opacity:0.4;" width="3" x="791.617" y="1919"/>
  <text style="stroke:none;fill:black;font-family:-apple-system,&quot;SF Pro Display&quot;,&quot;SF Pro Text&quot;,Helvetica,sans-serif;font-weight:bold;" transform="matrix(1 0 0 1 776 1953)">Margins</text>
  <text style="stroke:none;fill:black;font-family:-apple-system,&quot;SF Pro Display&quot;,&quot;SF Pro Text&quot;,Helvetica,sans-serif;" transform="matrix(1 0 0 1 776 1971)">Leading and trailing margins on the left and right side of each symbol</text>
  <text style="stroke:none;fill:black;font-family:-apple-system,&quot;SF Pro Display&quot;,&quot;SF Pro Text&quot;,Helvetica,sans-serif;" transform="matrix(1 0 0 1 776 1989)">can be adjusted by modifying the width of the blue rectangles.</text>
  <text style="stroke:none;fill:black;font-family:-apple-system,&quot;SF Pro Display&quot;,&quot;SF Pro Text&quot;,Helvetica,sans-serif;" transform="matrix(1 0 0 1 776 2007)">Modifications are automatically applied proportionally to all</text>
  <text style="stroke:none;fill:black;font-family:-apple-system,&quot;SF Pro Display&quot;,&quot;SF Pro Text&quot;,Helvetica,sans-serif;" transform="matrix(1 0 0 1 776 2025)">scales and weights.</text>
  <g id="" transform="matrix(1 0 0 1 1289 1933)">
   <path d="M 2.83203 3.11523 L 4.375 4.6582 C 5.22461 5.48828 6.19141 5.41992 7.06055 4.46289 L 17.2754 -6.66016 C 17.7051 -6.36719 18.0957 -6.37695 18.5645 -6.47461 L 19.6094 -6.68945 L 20.3027 -5.99609 L 20.2539 -5.47852 C 20.1855 -4.95117 20.3516 -4.53125 20.8496 -4.0332 L 21.6602 -3.22266 C 22.168 -2.71484 22.8223 -2.68555 23.3008 -3.16406 L 26.5527 -6.41602 C 27.0312 -6.89453 27.0117 -7.54883 26.5039 -8.05664 L 25.6836 -8.87695 C 25.1855 -9.375 24.7754 -9.55078 24.2383 -9.47266 L 23.7109 -9.41406 L 23.0566 -10.0781 L 23.3398 -11.2207 C 23.4863 -11.7871 23.3398 -12.2559 22.7148 -12.8613 L 20.3027 -15.2539 C 16.7578 -18.7793 12.2266 -18.6719 9.11133 -15.5371 C 8.69141 -15.1074 8.64258 -14.5215 8.91602 -14.0918 C 9.15039 -13.7207 9.62891 -13.4961 10.2734 -13.6621 C 11.7871 -14.043 13.3008 -13.9258 14.7852 -12.9199 L 14.1602 -11.3379 C 13.9258 -10.752 13.9453 -10.2734 14.1797 -9.83398 L 3.01758 0.439453 C 2.08008 1.30859 1.97266 2.25586 2.83203 3.11523 Z M 10.6738 -15.1465 C 13.3398 -17.1387 16.6504 -16.8262 19.0527 -14.4141 L 21.6797 -11.8066 C 21.9141 -11.5723 21.9434 -11.3867 21.8848 -11.0938 L 21.5039 -9.53125 L 23.0762 -7.95898 L 24.043 -8.04688 C 24.3262 -8.07617 24.4141 -8.05664 24.6387 -7.83203 L 25.2637 -7.20703 L 22.5098 -4.46289 L 21.8848 -5.07812 C 21.6602 -5.30273 21.6406 -5.40039 21.6699 -5.68359 L 21.7578 -6.64062 L 20.1953 -8.20312 L 18.5742 -7.89062 C 18.291 -7.83203 18.1445 -7.83203 17.9102 -8.07617 L 15.7324 -10.2539 C 15.5078 -10.4883 15.4785 -10.625 15.6055 -10.9473 L 16.5527 -13.2227 C 14.9512 -14.7559 12.8418 -15.6055 10.8008 -14.9512 C 10.7129 -14.9219 10.6445 -14.9414 10.6152 -14.9805 C 10.5859 -15.0293 10.5859 -15.0781 10.6738 -15.1465 Z M 4.10156 2.41211 C 3.61328 1.91406 3.78906 1.61133 4.12109 1.30859 L 15.0781 -8.80859 L 16.3086 -7.57812 L 6.15234 3.34961 C 5.84961 3.68164 5.46875 3.7793 5.06836 3.37891 Z"/>
  </g>
  <text style="stroke:none;fill:black;font-family:-apple-system,&quot;SF Pro Display&quot;,&quot;SF Pro Text&quot;,Helvetica,sans-serif;font-weight:bold;" transform="matrix(1 0 0 1 1289 1953)">Exporting</text>
  <text style="stroke:none;fill:black;font-family:-apple-system,&quot;SF Pro Display&quot;,&quot;SF Pro Text&quot;,Helvetica,sans-serif;" transform="matrix(1 0 0 1 1289 1971)">Symbols should be outlined when exporting to ensure the</text>
  <text style="stroke:none;fill:black;font-family:-apple-system,&quot;SF Pro Display&quot;,&quot;SF Pro Text&quot;,Helvetica,sans-serif;" transform="matrix(1 0 0 1 1289 1989)">design is preserved when submitting to Xcode.</text>
  <text id="template-version" style="stroke:none;fill:black;font-family:-apple-system,&quot;SF Pro Display&quot;,&quot;SF Pro Text&quot;,Helvetica,sans-serif;text-anchor:end;" transform="matrix(1 0 0 1 3036 1933)">Template v.1.0</text>
  <text style="stroke:none;fill:black;font-family:-apple-system,&quot;SF Pro Display&quot;,&quot;SF Pro Text&quot;,Helvetica,sans-serif;text-anchor:end;" transform="matrix(1 0 0 1 3036 1951)">Generated from mappin.circle</text>
  <text style="stroke:none;fill:black;font-family:-apple-system,&quot;SF Pro Display&quot;,&quot;SF Pro Text&quot;,Helvetica,sans-serif;text-anchor:end;" transform="matrix(1 0 0 1 3036 1969)">Typeset at 100 points</text>
  <text style="stroke:none;fill:black;font-family:-apple-system,&quot;SF Pro Display&quot;,&quot;SF Pro Text&quot;,Helvetica,sans-serif;" transform="matrix(1 0 0 1 263 726)">Small</text>
  <text style="stroke:none;fill:black;font-family:-apple-system,&quot;SF Pro Display&quot;,&quot;SF Pro Text&quot;,Helvetica,sans-serif;" transform="matrix(1 0 0 1 263 1156)">Medium</text>
  <text style="stroke:none;fill:black;font-family:-apple-system,&quot;SF Pro Display&quot;,&quot;SF Pro Text&quot;,Helvetica,sans-serif;" transform="matrix(1 0 0 1 263 1586)">Large</text>
 </g>
 <g id="Guides">
  <g id="H-reference" style="fill:#27AAE1;stroke:none;" transform="matrix(1 0 0 1 339 696)">
   <path d="M 54.9316 0 L 57.666 0 L 30.5664 -70.459 L 28.0762 -70.459 L 0.976562 0 L 3.66211 0 L 12.9395 -24.4629 L 45.7031 -24.4629 Z M 29.1992 -67.0898 L 29.4434 -67.0898 L 44.8242 -26.709 L 13.8184 -26.709 Z"/>
  </g>
  <line id="Baseline-S" style="fill:none;stroke:#27AAE1;opacity:1;stroke-width:0.577;" x1="263" x2="3036" y1="696" y2="696"/>
  <line id="Capline-S" style="fill:none;stroke:#27AAE1;opacity:1;stroke-width:0.577;" x1="263" x2="3036" y1="625.541" y2="625.541"/>
  <g id="H-reference" style="fill:#27AAE1;stroke:none;" transform="matrix(1 0 0 1 339 1126)">
   <path d="M 54.9316 0 L 57.666 0 L 30.5664 -70.459 L 28.0762 -70.459 L 0.976562 0 L 3.66211 0 L 12.9395 -24.4629 L 45.7031 -24.4629 Z M 29.1992 -67.0898 L 29.4434 -67.0898 L 44.8242 -26.709 L 13.8184 -26.709 Z"/>
  </g>
  <line id="Baseline-M" style="fill:none;stroke:#27AAE1;opacity:1;stroke-width:0.577;" x1="263" x2="3036" y1="1126" y2="1126"/>
  <line id="Capline-M" style="fill:none;stroke:#27AAE1;opacity:1;stroke-width:0.577;" x1="263" x2="3036" y1="1055.54" y2="1055.54"/>
  <g id="H-reference" style="fill:#27AAE1;stroke:none;" transform="matrix(1 0 0 1 339 1556)">
   <path d="M 54.9316 0 L 57.666 0 L 30.5664 -70.459 L 28.0762 -70.459 L 0.976562 0 L 3.66211 0 L 12.9395 -24.4629 L 45.7031 -24.4629 Z M 29.1992 -67.0898 L 29.4434 -67.0898 L 44.8242 -26.709 L 13.8184 -26.709 Z"/>
  </g>
  <line id="Baseline-L" style="fill:none;stroke:#27AAE1;opacity:1;stroke-width:0.577;" x1="263" x2="3036" y1="1556" y2="1556"/>
  <line id="Capline-L" style="fill:none;stroke:#27AAE1;opacity:1;stroke-width:0.577;" x1="263" x2="3036" y1="1485.54" y2="1485.54"/>
  <rect height="119.336" id="left-margin" style="fill:#00AEEF;stroke:none;opacity:0.4;" width="8.74023" x="1391.3" y="1030.79"/>
  <rect height="119.336" id="right-margin" style="fill:#00AEEF;stroke:none;opacity:0.4;" width="8.74023" x="1499.65" y="1030.79"/>
 </g>
 <g id="Symbols">
  <g id="Black-L" transform="matrix(1 0 0 1 2854.05 1556)">
   <path d="M 79.3457 32.8613 C 116.748 32.8613 147.412 2.19727 147.412 -35.2051 C 147.412 -72.6074 116.748 -103.271 79.2969 -103.271 C 41.8945 -103.271 11.2793 -72.6074 11.2793 -35.2051 C 11.2793 2.19727 41.9434 32.8613 79.3457 32.8613 Z M 79.3457 12.4023 C 52.9785 12.4023 31.7383 -8.83789 31.7383 -35.2051 C 31.7383 -61.5723 52.9297 -82.8125 79.2969 -82.8125 C 105.664 -82.8125 126.953 -61.5723 126.953 -35.2051 C 127.002 -8.83789 105.713 12.4023 79.3457 12.4023 Z M 62.5 -54.6387 C 62.5 -47.7051 66.6504 -41.6992 72.6562 -39.1602 L 72.6562 -12.3047 C 72.6562 -5.9082 75.7812 2.63672 79.2969 2.63672 C 82.7637 2.63672 85.8887 -5.81055 85.8887 -12.3047 L 85.8887 -39.1113 C 91.9922 -41.6504 96.1426 -47.6562 96.1426 -54.6387 C 96.1426 -64.0137 88.5742 -71.5332 79.2969 -71.4844 C 70.0195 -71.4355 62.5 -63.8672 62.5 -54.6387 Z M 69.2871 -58.7891 C 69.2871 -62.0117 72.0215 -64.7461 75.1465 -64.7461 C 78.3691 -64.7461 81.0547 -62.0117 81.0547 -58.7891 C 81.0547 -55.6152 78.3691 -52.8809 75.1465 -52.8809 C 72.0215 -52.8809 69.2871 -55.6152 69.2871 -58.7891 Z"/>
  </g>
  <g id="Heavy-L" transform="matrix(1 0 0 1 2558.39 1556)">
   <path d="M 78.2715 31.7871 C 115.088 31.7871 145.312 1.61133 145.312 -35.2051 C 145.312 -72.0215 115.039 -102.197 78.2715 -102.197 C 41.4551 -102.197 11.2793 -72.0215 11.2793 -35.2051 C 11.2793 1.61133 41.5039 31.7871 78.2715 31.7871 Z M 78.2715 14.0137 C 51.0254 14.0137 29.0527 -7.95898 29.0527 -35.2051 C 29.0527 -62.5 50.9766 -84.4727 78.2715 -84.4727 C 105.518 -84.4727 127.49 -62.5 127.539 -35.2051 C 127.539 -7.95898 105.566 14.0137 78.2715 14.0137 Z M 62.1582 -55.7617 C 62.1582 -48.9746 66.3574 -43.1641 72.2656 -40.8691 L 72.2656 -12.1582 C 72.2656 -5.27344 75 2.92969 78.2715 2.92969 C 81.4453 2.92969 84.1797 -5.17578 84.1797 -12.1582 L 84.1797 -40.8203 C 90.1855 -43.1152 94.3359 -48.9746 94.3359 -55.7617 C 94.3359 -64.6973 87.1094 -71.9238 78.2715 -71.875 C 69.3848 -71.8262 62.1582 -64.5996 62.1582 -55.7617 Z M 68.7012 -59.7656 C 68.7012 -62.793 71.2891 -65.3809 74.2188 -65.3809 C 77.2949 -65.3809 79.834 -62.793 79.834 -59.7656 C 79.7852 -56.7871 77.2949 -54.1992 74.2188 -54.1992 C 71.2891 -54.1992 68.7012 -56.7871 68.7012 -59.7656 Z"/>
  </g>
  <g id="Bold-L" transform="matrix(1 0 0 1 2262.88 1556)">
   <path d="M 77.0996 30.6152 C 113.232 30.6152 142.92 0.878906 142.92 -35.2051 C 142.92 -71.3379 113.184 -101.025 77.0508 -101.025 C 40.9668 -101.025 11.2793 -71.3379 11.2793 -35.2051 C 11.2793 0.878906 41.0156 30.6152 77.0996 30.6152 Z M 77.0996 15.8691 C 48.8281 15.8691 26.0742 -6.93359 26.0742 -35.2051 C 26.0742 -63.4766 48.7793 -86.2793 77.0508 -86.2793 C 105.371 -86.2793 128.125 -63.4766 128.174 -35.2051 C 128.174 -6.93359 105.371 15.8691 77.0996 15.8691 Z M 61.8164 -57.0312 C 61.8164 -50.4395 66.0156 -44.8242 71.875 -42.7246 L 71.875 -12.0117 C 71.875 -4.54102 74.1211 3.27148 77.0508 3.27148 C 79.9805 3.27148 82.2266 -4.44336 82.2266 -12.0117 L 82.2266 -42.7246 C 88.1348 -44.7266 92.334 -50.3906 92.334 -57.0312 C 92.334 -65.4785 85.4492 -72.3145 77.0508 -72.3145 C 68.6523 -72.2656 61.8164 -65.4297 61.8164 -57.0312 Z M 68.0664 -60.8887 C 68.0664 -63.6719 70.459 -66.0645 73.1934 -66.0645 C 76.0742 -66.0645 78.418 -63.6719 78.3691 -60.8887 C 78.3691 -58.1055 76.0742 -55.7129 73.1934 -55.7129 C 70.459 -55.7129 68.0664 -58.1055 68.0664 -60.8887 Z"/>
  </g>
  <g id="Semibold-L" transform="matrix(1 0 0 1 1966.97 1556)">
   <path d="M 76.2695 29.7852 C 111.914 29.7852 141.309 0.439453 141.309 -35.2051 C 141.309 -70.8496 111.865 -100.244 76.2695 -100.244 C 40.625 -100.244 11.2793 -70.8496 11.2793 -35.2051 C 11.2793 0.439453 40.6738 29.7852 76.2695 29.7852 Z M 76.2695 17.0898 C 47.3145 17.0898 24.0234 -6.25 24.0234 -35.2051 C 24.0234 -64.209 47.2656 -87.5 76.2695 -87.5 C 105.225 -87.5 128.564 -64.209 128.613 -35.2051 C 128.662 -6.25 105.273 17.0898 76.2695 17.0898 Z M 61.5234 -57.9102 C 61.5234 -51.416 65.7715 -45.9473 71.582 -44.043 L 71.582 -11.8652 C 71.582 -4.05273 73.4863 3.4668 76.2695 3.4668 C 79.0039 3.4668 80.8594 -3.90625 80.8594 -11.8652 L 80.8594 -44.043 C 86.7676 -45.8984 90.9668 -51.3672 90.9668 -57.9102 C 90.9668 -66.0156 84.3262 -72.6074 76.2695 -72.6074 C 68.1152 -72.6074 61.5234 -66.0156 61.5234 -57.9102 Z M 67.627 -61.6211 C 67.627 -64.3066 69.9219 -66.5527 72.5098 -66.5527 C 75.1953 -66.5527 77.4414 -64.3066 77.3926 -61.6211 C 77.3926 -59.0332 75.1953 -56.7383 72.5098 -56.7383 C 69.9219 -56.7383 67.627 -59.0332 67.627 -61.6211 Z"/>
  </g>
  <g id="Medium-L" transform="matrix(1 0 0 1 1670.87 1556)">
   <path d="M 75.6836 29.1992 C 110.938 29.1992 140.088 0.0488281 140.088 -35.2051 C 140.088 -70.459 110.889 -99.6094 75.6348 -99.6094 C 40.3809 -99.6094 11.2793 -70.459 11.2793 -35.2051 C 11.2793 0.0488281 40.3809 29.1992 75.6836 29.1992 Z M 75.6836 18.0664 C 46.1426 18.0664 22.4609 -5.71289 22.4609 -35.2051 C 22.4609 -64.6973 46.1426 -88.4766 75.6348 -88.4766 C 105.127 -88.4766 128.906 -64.6973 128.906 -35.2051 C 128.955 -5.71289 105.176 18.0664 75.6836 18.0664 Z M 61.377 -58.5449 C 61.377 -52.1973 65.5762 -46.7773 71.3379 -45.0195 L 71.3379 -11.7676 C 71.3379 -3.66211 73.0469 3.66211 75.6348 3.66211 C 78.2227 3.66211 79.834 -3.51562 79.834 -11.7676 L 79.834 -45.0195 C 85.6934 -46.7285 89.8926 -52.1484 89.8926 -58.5449 C 89.8926 -66.4551 83.4961 -72.8516 75.6348 -72.8516 C 67.7734 -72.8027 61.377 -66.4062 61.377 -58.5449 Z M 67.2852 -62.207 C 67.2852 -64.7461 69.4824 -66.9434 71.9727 -66.9434 C 74.5605 -66.9434 76.709 -64.7461 76.6602 -62.207 C 76.6602 -59.7168 74.5605 -57.5195 71.9727 -57.5195 C 69.4824 -57.5195 67.334 -59.7168 67.2852 -62.207 Z"/>
  </g>
  <g id="Regular-L" transform="matrix(1 0 0 1 1374.97 1556)">
   <path d="M 74.8535 28.3691 C 109.668 28.3691 138.477 -0.390625 138.477 -35.2051 C 138.477 -70.0195 109.619 -98.7793 74.8047 -98.7793 C 40.0391 -98.7793 11.2793 -70.0195 11.2793 -35.2051 C 11.2793 -0.390625 40.0879 28.3691 74.8535 28.3691 Z M 74.8535 19.2871 C 44.6777 19.2871 20.4102 -5.0293 20.4102 -35.2051 C 20.4102 -65.3809 44.6289 -89.6973 74.8047 -89.6973 C 105.029 -89.6973 129.297 -65.3809 129.346 -35.2051 C 129.395 -5.0293 105.078 19.2871 74.8535 19.2871 Z M 61.1328 -59.4238 C 61.1328 -53.1738 65.332 -47.9004 71.0449 -46.3379 L 71.0449 -11.6699 C 71.0449 -3.17383 72.4121 3.90625 74.8047 3.90625 C 77.2461 3.90625 78.5156 -3.02734 78.5156 -11.6699 L 78.5156 -46.3379 C 84.3262 -47.8516 88.5254 -53.125 88.5254 -59.4238 C 88.5254 -66.9922 82.373 -73.1445 74.8047 -73.1445 C 67.2852 -73.1445 61.1328 -66.9922 61.1328 -59.4238 Z M 66.8457 -62.9395 C 66.7969 -65.3809 68.9453 -67.4316 71.2891 -67.4316 C 73.7305 -67.4316 75.7324 -65.3809 75.6836 -62.9395 C 75.6836 -60.5957 73.7305 -58.5449 71.2891 -58.5449 C 68.9453 -58.5449 66.8945 -60.5957 66.8457 -62.9395 Z"/>
  </g>
  <g id="Light-L" transform="matrix(1 0 0 1 1079.18 1556)">
   <path d="M 73.9258 27.4902 C 108.301 27.4902 136.621 -0.830078 136.621 -35.1562 C 136.621 -69.5312 108.252 -97.8516 73.9258 -97.8516 C 39.5508 -97.8516 11.2793 -69.5312 11.2793 -35.1562 C 11.2793 -0.830078 39.5996 27.4902 73.9258 27.4902 Z M 73.9258 20.6055 C 43.1152 20.6055 18.2129 -4.3457 18.2129 -35.1562 C 18.2129 -66.0156 43.0664 -90.918 73.9258 -90.918 C 104.736 -90.918 129.688 -66.0156 129.736 -35.1562 C 129.736 -4.3457 104.785 20.6055 73.9258 20.6055 Z M 61.084 -60.2539 C 61.084 -54.1992 65.332 -49.1699 70.9961 -47.8516 L 70.9961 -9.17969 C 70.9961 -1.61133 72.1191 3.80859 73.9258 3.80859 C 75.6836 3.80859 76.8066 -1.46484 76.8066 -9.17969 L 76.8066 -47.8516 C 82.5195 -49.1211 86.7188 -54.1992 86.7188 -60.2539 C 86.7188 -67.334 81.0059 -73.0957 73.9258 -73.0957 C 66.8457 -73.0957 61.084 -67.334 61.084 -60.2539 Z M 66.3574 -63.5742 C 66.3086 -65.918 68.3594 -67.8711 70.6055 -67.8711 C 72.9004 -67.8711 74.8535 -65.918 74.8047 -63.5742 C 74.7559 -61.3281 72.9004 -59.375 70.6055 -59.375 C 68.3594 -59.375 66.4062 -61.3281 66.3574 -63.5742 Z"/>
  </g>
  <g id="Thin-L" transform="matrix(1 0 0 1 783.693 1556)">
   <path d="M 72.7051 26.3184 C 106.494 26.3184 134.18 -1.36719 134.18 -35.1074 C 134.18 -68.8965 106.494 -96.582 72.7051 -96.582 C 38.9648 -96.582 11.2793 -68.8965 11.2793 -35.1074 C 11.2793 -1.36719 38.9648 26.3184 72.7051 26.3184 Z M 72.7051 22.3145 C 41.0156 22.3145 15.2832 -3.41797 15.2832 -35.1074 C 15.2832 -66.8457 41.0156 -92.5781 72.7051 -92.5781 C 104.395 -92.5781 130.176 -66.8457 130.176 -35.1074 C 130.176 -3.41797 104.443 22.3145 72.7051 22.3145 Z M 61.084 -61.377 C 61.084 -55.5664 65.332 -50.8301 70.8984 -49.9023 L 70.8984 -5.81055 C 70.8984 0.439453 71.7773 3.75977 72.7051 3.75977 C 73.6816 3.75977 74.5117 0.537109 74.5117 -5.81055 L 74.5117 -49.9023 C 80.127 -50.8301 84.375 -55.5664 84.375 -61.377 C 84.375 -67.7734 79.1504 -72.998 72.7051 -72.998 C 66.2598 -72.998 61.084 -67.7734 61.084 -61.377 Z M 65.7227 -64.4043 C 65.6738 -66.6016 67.627 -68.4082 69.7266 -68.4082 C 71.875 -68.4082 73.6816 -66.6016 73.584 -64.4043 C 73.5352 -62.2559 71.875 -60.4492 69.7266 -60.4492 C 67.627 -60.4492 65.8203 -62.2559 65.7227 -64.4043 Z"/>
  </g>
  <g id="Ultralight-L" transform="matrix(1 0 0 1 487.616 1556)">
   <path d="M 72.1191 25.7324 C 105.566 25.7324 132.91 -1.61133 132.91 -35.1074 C 132.91 -68.5547 105.566 -95.8984 72.1191 -95.8984 C 38.623 -95.8984 11.2793 -68.5547 11.2793 -35.1074 C 11.2793 -1.61133 38.623 25.7324 72.1191 25.7324 Z M 72.1191 23.2422 C 39.9414 23.2422 13.7695 -2.97852 13.7695 -35.1074 C 13.7695 -67.2363 39.9414 -93.4082 72.1191 -93.4082 C 104.248 -93.4082 130.42 -67.2363 130.42 -35.1074 C 130.42 -2.97852 104.248 23.2422 72.1191 23.2422 Z M 61.0352 -61.9141 C 61.0352 -56.2988 65.332 -51.6602 70.8496 -50.9766 L 70.8496 -4.15039 C 70.8496 1.51367 71.582 3.71094 72.1191 3.71094 C 72.6074 3.71094 73.3887 1.5625 73.3887 -4.15039 L 73.3887 -50.9766 C 78.9062 -51.709 83.1543 -56.2988 83.1543 -61.9141 C 83.1543 -68.0176 78.2227 -72.9492 72.1191 -72.9492 C 65.9668 -72.9492 61.0352 -68.0176 61.0352 -61.9141 Z M 65.4297 -64.8438 C 65.332 -66.9922 67.2363 -68.7012 69.2871 -68.7012 C 71.3379 -68.7012 73.0957 -66.9922 72.998 -64.8438 C 72.9004 -62.7441 71.3379 -61.0352 69.2871 -61.0352 C 67.2363 -61.0352 65.4785 -62.7441 65.4297 -64.8438 Z"/>
  </g>
  <g id="Black-M" transform="matrix(1 0 0 1 2870.97 1126)">
   <path d="M 62.4023 18.457 C 91.9922 18.457 116.113 -5.61523 116.113 -35.2051 C 116.113 -64.7949 91.9922 -88.8672 62.4023 -88.8672 C 32.8125 -88.8672 8.74023 -64.7949 8.74023 -35.2051 C 8.74023 -5.61523 32.8125 18.457 62.4023 18.457 Z M 62.4023 0.195312 C 42.8711 0.195312 27.002 -15.625 27.002 -35.2051 C 27.002 -54.7363 42.8711 -70.6055 62.4023 -70.6055 C 81.9824 -70.6055 97.8027 -54.7363 97.8027 -35.2051 C 97.8027 -15.625 81.9824 0.195312 62.4023 0.195312 Z M 48.8281 -49.2188 C 48.8281 -43.7012 52.0996 -38.9648 56.7871 -36.8164 L 56.7871 -16.3574 C 56.7871 -12.5977 59.668 -6.29883 62.4023 -6.29883 C 65.0879 -6.29883 68.0176 -12.5 68.0176 -16.3574 L 68.0176 -36.7676 C 72.7539 -38.916 75.9766 -43.7012 75.9766 -49.2188 C 75.9766 -56.7383 69.873 -62.8418 62.4023 -62.7441 C 54.9316 -62.6953 48.8281 -56.6406 48.8281 -49.2188 Z M 54.1992 -52.4902 C 54.1992 -55.2246 56.4941 -57.4707 59.1309 -57.4707 C 61.8164 -57.4707 64.0625 -55.2246 64.0625 -52.4902 C 64.0625 -49.8047 61.8164 -47.5586 59.1309 -47.5586 C 56.4941 -47.5586 54.1992 -49.8047 54.1992 -52.4902 Z"/>
  </g>
  <g id="Heavy-M" transform="matrix(1 0 0 1 2575.19 1126)">
   <path d="M 61.5234 17.5781 C 90.5273 17.5781 114.258 -6.15234 114.258 -35.2051 C 114.258 -64.2578 90.5273 -87.9883 61.4746 -87.9883 C 32.4707 -87.9883 8.74023 -64.2578 8.74023 -35.2051 C 8.74023 -6.15234 32.4707 17.5781 61.5234 17.5781 Z M 61.5234 1.66016 C 41.1133 1.66016 24.6582 -14.8438 24.6582 -35.2051 C 24.6582 -55.5664 41.1133 -72.0703 61.4746 -72.0703 C 81.8848 -72.0703 98.3398 -55.5664 98.3398 -35.2051 C 98.3398 -14.8438 81.8848 1.66016 61.5234 1.66016 Z M 48.4863 -50.1953 C 48.4863 -44.8242 51.7578 -40.2344 56.3965 -38.2812 L 56.3965 -16.8457 C 56.3965 -12.2559 58.8867 -5.95703 61.4746 -5.95703 C 64.0625 -5.95703 66.5527 -12.207 66.5527 -16.8457 L 66.5527 -38.2324 C 71.2402 -40.1855 74.4629 -44.8242 74.4629 -50.1953 C 74.4629 -57.4219 68.6035 -63.2324 61.4746 -63.1836 C 54.2969 -63.1348 48.4863 -57.3242 48.4863 -50.1953 Z M 53.7109 -53.418 C 53.7109 -55.9082 55.8105 -58.0566 58.3008 -58.0566 C 60.791 -58.0566 62.8906 -55.9082 62.8906 -53.418 C 62.8906 -50.9277 60.791 -48.7793 58.3008 -48.7793 C 55.8105 -48.7793 53.7109 -50.9277 53.7109 -53.418 Z"/>
  </g>
  <g id="Bold-M" transform="matrix(1 0 0 1 2279.5 1126)">
   <path d="M 60.498 16.5039 C 88.8672 16.5039 112.207 -6.78711 112.207 -35.2051 C 112.207 -63.623 88.8672 -86.9629 60.4492 -86.9629 C 32.0312 -86.9629 8.74023 -63.623 8.74023 -35.2051 C 8.74023 -6.78711 32.0801 16.5039 60.498 16.5039 Z M 60.498 3.22266 C 39.1602 3.22266 22.0703 -13.916 22.0703 -35.2051 C 22.0703 -56.4941 39.1602 -73.6816 60.4492 -73.6816 C 81.7383 -73.6816 98.9258 -56.4941 98.9258 -35.2051 C 98.9746 -13.916 81.7871 3.22266 60.498 3.22266 Z M 48.0957 -51.3672 C 48.0957 -46.1426 51.3672 -41.6504 55.957 -39.8926 L 55.957 -17.3828 C 55.957 -11.9141 57.959 -5.61523 60.4492 -5.61523 C 62.8906 -5.61523 64.8926 -11.8164 64.8926 -17.3828 L 64.8926 -39.8438 C 69.5801 -41.6016 72.8027 -46.0938 72.8027 -51.3672 C 72.8027 -58.2031 67.2363 -63.7207 60.4492 -63.7207 C 53.6621 -63.6719 48.0957 -58.1543 48.0957 -51.3672 Z M 53.125 -54.4434 C 53.125 -56.7383 55.127 -58.6914 57.373 -58.6914 C 59.668 -58.6914 61.6211 -56.7383 61.6211 -54.4434 C 61.6211 -52.1484 59.668 -50.1953 57.373 -50.1953 C 55.127 -50.1953 53.1738 -52.1484 53.125 -54.4434 Z"/>
  </g>
  <g id="Semibold-M" transform="matrix(1 0 0 1 1983.5 1126)">
   <path d="M 59.7656 15.8203 C 87.7441 15.8203 110.791 -7.22656 110.791 -35.2051 C 110.791 -63.1836 87.6953 -86.2793 59.7656 -86.2793 C 31.7871 -86.2793 8.74023 -63.1836 8.74023 -35.2051 C 8.74023 -7.22656 31.7871 15.8203 59.7656 15.8203 Z M 59.7656 4.3457 C 37.8418 4.3457 20.2637 -13.2812 20.2637 -35.2051 C 20.2637 -57.1289 37.793 -74.8047 59.7656 -74.8047 C 81.6895 -74.8047 99.3164 -57.1289 99.3652 -35.2051 C 99.3652 -13.2812 81.6895 4.3457 59.7656 4.3457 Z M 47.8516 -52.1484 C 47.8516 -47.0215 51.0742 -42.627 55.6641 -41.0156 L 55.6641 -17.7246 C 55.6641 -11.6699 57.373 -5.32227 59.7656 -5.32227 C 62.1094 -5.32227 63.7695 -11.5723 63.7695 -17.7246 L 63.7695 -40.9668 C 68.4082 -42.5781 71.6309 -46.9727 71.6309 -52.1484 C 71.6309 -58.7402 66.3086 -64.0625 59.7656 -64.0625 C 53.1738 -64.0137 47.8516 -58.6914 47.8516 -52.1484 Z M 52.7344 -55.127 C 52.7344 -57.2754 54.6387 -59.1309 56.7383 -59.1309 C 58.9355 -59.1309 60.7422 -57.2754 60.7422 -55.127 C 60.7422 -52.9785 58.9355 -51.123 56.7383 -51.123 C 54.6387 -51.123 52.7832 -52.9785 52.7344 -55.127 Z"/>
  </g>
  <g id="Medium-M" transform="matrix(1 0 0 1 1687.3 1126)">
   <path d="M 59.2285 15.2832 C 86.9141 15.2832 109.766 -7.56836 109.766 -35.2051 C 109.766 -62.8906 86.8652 -85.7422 59.1797 -85.7422 C 31.543 -85.7422 8.74023 -62.8906 8.74023 -35.2051 C 8.74023 -7.56836 31.5918 15.2832 59.2285 15.2832 Z M 59.2285 5.17578 C 36.8164 5.17578 18.8965 -12.8418 18.8965 -35.2051 C 18.8965 -57.6172 36.8164 -75.6348 59.1797 -75.6348 C 81.5918 -75.6348 99.6094 -57.6172 99.6582 -35.2051 C 99.707 -12.8418 81.6406 5.17578 59.2285 5.17578 Z M 47.6562 -52.7344 C 47.6562 -47.6562 50.8789 -43.3594 55.4199 -41.8457 L 55.4199 -18.0176 C 55.4199 -11.4746 56.8848 -5.12695 59.1797 -5.12695 C 61.5234 -5.12695 62.9395 -11.377 62.9395 -18.0176 L 62.9395 -41.8457 C 67.5293 -43.3105 70.752 -47.6562 70.752 -52.7344 C 70.752 -59.1309 65.5762 -64.3066 59.1797 -64.3066 C 52.832 -64.3066 47.6562 -59.082 47.6562 -52.7344 Z M 52.4414 -55.6641 C 52.4414 -57.7148 54.248 -59.4727 56.25 -59.4727 C 58.3496 -59.4727 60.0586 -57.7148 60.0586 -55.6641 C 60.0586 -53.6621 58.3496 -51.8555 56.25 -51.8555 C 54.248 -51.8555 52.4902 -53.6621 52.4414 -55.6641 Z"/>
  </g>
  <g id="Regular-M" transform="matrix(1 0 0 1 1391.3 1126)">
   <path d="M 58.5449 14.5508 C 85.791 14.5508 108.35 -8.00781 108.35 -35.2539 C 108.35 -62.4512 85.7422 -85.0586 58.4961 -85.0586 C 31.2988 -85.0586 8.74023 -62.4512 8.74023 -35.2539 C 8.74023 -8.00781 31.3477 14.5508 58.5449 14.5508 Z M 58.5449 6.25 C 35.498 6.25 17.0898 -12.207 17.0898 -35.2539 C 17.0898 -58.252 35.4492 -76.7578 58.4961 -76.7578 C 81.543 -76.7578 100 -58.252 100.049 -35.2539 C 100.098 -12.207 81.5918 6.25 58.5449 6.25 Z M 47.3633 -53.5156 C 47.3633 -48.5352 50.6348 -44.3359 55.127 -42.9199 L 55.127 -18.4082 C 55.127 -11.2305 56.2988 -4.88281 58.4961 -4.88281 C 60.7422 -4.88281 61.8164 -11.1328 61.8164 -18.4082 L 61.8164 -42.9199 C 66.3574 -44.2871 69.6289 -48.4863 69.6289 -53.5156 C 69.6289 -59.6191 64.6484 -64.6484 58.4961 -64.6484 C 52.3438 -64.6484 47.3633 -59.6191 47.3633 -53.5156 Z M 52.0996 -56.3477 C 52.0508 -58.3008 53.7598 -59.9609 55.6152 -59.9609 C 57.5684 -59.9609 59.1797 -58.3008 59.1797 -56.3477 C 59.1797 -54.4922 57.5684 -52.832 55.6152 -52.832 C 53.7598 -52.832 52.0996 -54.4922 52.0996 -56.3477 Z"/>
  </g>
  <g id="Light-M" transform="matrix(1 0 0 1 1095.42 1126)">
   <path d="M 57.7148 13.7695 C 84.5215 13.7695 106.689 -8.39844 106.689 -35.2051 C 106.689 -62.0117 84.5215 -84.1797 57.666 -84.1797 C 30.8594 -84.1797 8.74023 -62.0117 8.74023 -35.2051 C 8.74023 -8.39844 30.9082 13.7695 57.7148 13.7695 Z M 57.7148 7.4707 C 34.082 7.4707 15.0879 -11.5723 15.0879 -35.2051 C 15.0879 -58.8379 34.082 -77.832 57.666 -77.832 C 81.2988 -77.832 100.342 -58.8379 100.391 -35.2051 C 100.391 -11.5723 81.3477 7.4707 57.7148 7.4707 Z M 47.3633 -54.248 C 47.3633 -49.4629 50.6348 -45.459 55.0293 -44.3359 L 55.0293 -16.1621 C 55.0293 -9.86328 56.0059 -4.93164 57.666 -4.93164 C 59.3262 -4.93164 60.3027 -9.76562 60.3027 -16.1621 L 60.3027 -44.3359 C 64.7461 -45.459 68.0176 -49.4629 68.0176 -54.248 C 68.0176 -59.9609 63.3789 -64.5996 57.666 -64.5996 C 52.002 -64.5996 47.3633 -59.9609 47.3633 -54.248 Z M 51.6602 -56.9336 C 51.6113 -58.7402 53.2227 -60.3027 55.0293 -60.3027 C 56.8848 -60.3027 58.3984 -58.7402 58.3496 -56.9336 C 58.3496 -55.127 56.8848 -53.5645 55.0293 -53.5645 C 53.2227 -53.5645 51.6602 -55.127 51.6602 -56.9336 Z"/>
  </g>
  <g id="Thin-M" transform="matrix(1 0 0 1 799.806 1126)">
   <path d="M 56.6406 12.7441 C 82.9102 12.7441 104.492 -8.83789 104.492 -35.1562 C 104.492 -61.4746 82.9102 -83.0566 56.5918 -83.0566 C 30.3223 -83.0566 8.74023 -61.4746 8.74023 -35.1562 C 8.74023 -8.83789 30.3223 12.7441 56.6406 12.7441 Z M 56.6406 8.98438 C 32.2266 8.98438 12.4512 -10.791 12.4512 -35.1562 C 12.4512 -59.5215 32.2266 -79.2969 56.5918 -79.2969 C 81.0059 -79.2969 100.781 -59.5215 100.781 -35.1562 C 100.781 -10.791 81.0059 8.98438 56.6406 8.98438 Z M 47.3145 -55.2246 C 47.3145 -50.6836 50.6348 -46.9727 54.9805 -46.1914 L 54.9805 -13.1836 C 54.9805 -8.00781 55.7129 -4.98047 56.5918 -4.98047 C 57.5195 -4.98047 58.252 -7.95898 58.252 -13.1836 L 58.252 -46.1914 C 62.5977 -46.9727 65.918 -50.6836 65.918 -55.2246 C 65.918 -60.3516 61.7188 -64.502 56.5918 -64.502 C 51.4648 -64.502 47.3145 -60.3516 47.3145 -55.2246 Z M 51.0742 -57.666 C 51.0254 -59.375 52.5391 -60.8398 54.248 -60.8398 C 55.9082 -60.8398 57.373 -59.375 57.2754 -57.666 C 57.2266 -56.0059 55.9082 -54.541 54.248 -54.541 C 52.5391 -54.541 51.123 -56.0059 51.0742 -57.666 Z"/>
  </g>
  <g id="Ultralight-M" transform="matrix(1 0 0 1 503.656 1126)">
   <path d="M 56.0547 12.207 C 82.0801 12.207 103.369 -9.08203 103.369 -35.1562 C 103.369 -61.1816 82.0801 -82.4707 56.0547 -82.4707 C 30.0293 -82.4707 8.74023 -61.1816 8.74023 -35.1562 C 8.74023 -9.08203 30.0293 12.207 56.0547 12.207 Z M 56.0547 9.81445 C 31.2988 9.81445 11.1328 -10.3516 11.1328 -35.1562 C 11.1328 -59.9121 31.2988 -80.0781 56.0547 -80.0781 C 80.8594 -80.0781 100.977 -59.9121 100.977 -35.1562 C 100.977 -10.3516 80.8594 9.81445 56.0547 9.81445 Z M 47.3145 -55.7617 C 47.3145 -51.3184 50.6348 -47.7051 54.9316 -47.1191 L 54.9316 -11.6211 C 54.9316 -7.08008 55.5176 -5.0293 56.0547 -5.0293 C 56.5918 -5.0293 57.2266 -7.03125 57.2266 -11.6211 L 57.2266 -47.1191 C 61.5234 -47.7051 64.7949 -51.3184 64.7949 -55.7617 C 64.7949 -60.5957 60.8887 -64.502 56.0547 -64.502 C 51.2207 -64.502 47.3145 -60.5957 47.3145 -55.7617 Z M 50.7812 -58.0566 C 50.7324 -59.7168 52.1973 -61.084 53.8086 -61.084 C 55.4199 -61.084 56.7871 -59.7168 56.7383 -58.0566 C 56.6895 -56.4453 55.4199 -55.0781 53.8086 -55.0781 C 52.1973 -55.0781 50.8301 -56.4453 50.7812 -58.0566 Z"/>
  </g>
  <g id="Black-S" transform="matrix(1 0 0 1 2884.57 696)">
   <path d="M 48.8281 6.78711 C 71.9727 6.78711 90.8203 -12.0605 90.8203 -35.2051 C 90.8203 -58.3496 71.9727 -77.1973 48.8281 -77.1973 C 25.6836 -77.1973 6.83594 -58.3496 6.83594 -35.2051 C 6.83594 -12.0605 25.6836 6.78711 48.8281 6.78711 Z M 48.8281 -7.37305 C 33.4473 -7.37305 20.9961 -19.8242 20.9961 -35.2051 C 20.9961 -50.5859 33.4473 -63.0371 48.8281 -63.0371 C 64.209 -63.0371 76.6602 -50.5859 76.6602 -35.2051 C 76.6602 -19.8242 64.209 -7.37305 48.8281 -7.37305 Z M 38.2324 -46.2402 C 38.2324 -41.9434 40.7715 -38.2324 44.4336 -36.5723 L 44.4336 -20.5078 C 44.4336 -17.4805 46.6797 -12.5488 48.8281 -12.5488 C 50.9277 -12.5488 53.1738 -17.4316 53.1738 -20.5078 L 53.1738 -36.5234 C 56.8848 -38.1836 59.4238 -41.9434 59.4238 -46.2402 C 59.4238 -52.1484 54.6387 -56.8848 48.8281 -56.8359 C 42.9688 -56.7871 38.2324 -52.0508 38.2324 -46.2402 Z M 42.4316 -48.8281 C 42.4316 -50.9277 44.1895 -52.6855 46.2402 -52.6855 C 48.3398 -52.6855 50.0977 -50.9277 50.0977 -48.8281 C 50.0977 -46.7285 48.3398 -44.9707 46.2402 -44.9707 C 44.1895 -44.9707 42.4316 -46.7285 42.4316 -48.8281 Z"/>
  </g>
  <g id="Heavy-S" transform="matrix(1 0 0 1 2588.47 696)">
   <path d="M 48.2422 6.15234 C 70.9961 6.15234 89.5996 -12.4512 89.5996 -35.2051 C 89.5996 -57.959 70.9961 -76.6113 48.1934 -76.6113 C 25.4395 -76.6113 6.83594 -57.959 6.83594 -35.2051 C 6.83594 -12.4512 25.4395 6.15234 48.2422 6.15234 Z M 48.2422 -6.39648 C 32.2754 -6.39648 19.4336 -19.2871 19.4336 -35.2051 C 19.4336 -51.1719 32.2754 -64.0137 48.1934 -64.0137 C 64.1602 -64.0137 77.002 -51.1719 77.0508 -35.2051 C 77.0508 -19.2871 64.1602 -6.39648 48.2422 -6.39648 Z M 37.9883 -46.9238 C 37.9883 -42.7246 40.5273 -39.0625 44.1406 -37.5 L 44.1406 -21.1426 C 44.1406 -17.3828 46.0938 -12.3047 48.1934 -12.3047 C 50.293 -12.3047 52.2461 -17.334 52.2461 -21.1426 L 52.2461 -37.5 C 55.9082 -39.0137 58.4473 -42.7246 58.4473 -46.9238 C 58.4473 -52.6367 53.8086 -57.2266 48.1934 -57.1777 C 42.5293 -57.1289 37.9883 -52.5391 37.9883 -46.9238 Z M 42.0898 -49.4629 C 42.0898 -51.416 43.75 -53.0762 45.6543 -53.0762 C 47.6562 -53.0762 49.3164 -51.416 49.3164 -49.4629 C 49.3164 -47.5098 47.6562 -45.8496 45.6543 -45.8496 C 43.75 -45.8496 42.0898 -47.5098 42.0898 -49.4629 Z"/>
  </g>
  <g id="Bold-S" transform="matrix(1 0 0 1 2292.44 696)">
   <path d="M 47.5586 5.46875 C 69.873 5.46875 88.2324 -12.8906 88.2324 -35.2051 C 88.2324 -57.5684 69.873 -75.9277 47.5098 -75.9277 C 25.1953 -75.9277 6.83594 -57.5684 6.83594 -35.2051 C 6.83594 -12.8906 25.1953 5.46875 47.5586 5.46875 Z M 47.5586 -5.32227 C 30.957 -5.32227 17.6758 -18.6523 17.6758 -35.2051 C 17.6758 -51.8066 30.957 -65.1367 47.5098 -65.1367 C 64.1113 -65.1367 77.4414 -51.8066 77.4414 -35.2051 C 77.4414 -18.6523 64.1113 -5.32227 47.5586 -5.32227 Z M 37.6465 -47.7051 C 37.6465 -43.5547 40.2344 -40.0391 43.7988 -38.5742 L 43.7988 -21.8262 C 43.7988 -17.2852 45.459 -12.0117 47.5098 -12.0117 C 49.5605 -12.0117 51.1719 -17.2363 51.1719 -21.8262 L 51.1719 -38.5742 C 54.834 -39.9902 57.373 -43.5547 57.373 -47.7051 C 57.373 -53.1738 52.9297 -57.5684 47.5098 -57.5684 C 42.0898 -57.5195 37.6465 -53.125 37.6465 -47.7051 Z M 41.6992 -50.1465 C 41.6992 -52.002 43.2617 -53.5645 45.0684 -53.5645 C 46.875 -53.5645 48.4375 -52.002 48.4375 -50.1465 C 48.4375 -48.3887 46.875 -46.8262 45.0684 -46.8262 C 43.2617 -46.8262 41.6992 -48.3887 41.6992 -50.1465 Z"/>
  </g>
  <g id="Semibold-S" transform="matrix(1 0 0 1 1996.2 696)">
   <path d="M 47.0703 4.98047 C 69.0918 4.98047 87.3047 -13.1836 87.3047 -35.2539 C 87.3047 -57.2754 69.0918 -75.4883 47.0215 -75.4883 C 25 -75.4883 6.83594 -57.2754 6.83594 -35.2539 C 6.83594 -13.1836 25.0488 4.98047 47.0703 4.98047 Z M 47.0703 -4.58984 C 30.0781 -4.58984 16.4551 -18.2129 16.4551 -35.2539 C 16.4551 -52.2461 30.0293 -65.8691 47.0215 -65.8691 C 64.0625 -65.8691 77.6855 -52.2461 77.7344 -35.2539 C 77.7344 -18.2129 64.0625 -4.58984 47.0703 -4.58984 Z M 37.4512 -48.2422 C 37.4512 -44.1895 39.9902 -40.6738 43.6035 -39.3066 L 43.6035 -22.3145 C 43.6035 -17.2363 44.9707 -11.7676 47.0215 -11.7676 C 49.0723 -11.7676 50.4395 -17.1387 50.4395 -22.3145 L 50.4395 -39.3066 C 54.1016 -40.625 56.6406 -44.1406 56.6406 -48.2422 C 56.6406 -53.5645 52.2949 -57.8613 47.0215 -57.8125 C 41.748 -57.8125 37.4512 -53.5156 37.4512 -48.2422 Z M 41.4551 -50.6348 C 41.4551 -52.3926 42.9199 -53.8574 44.6289 -53.8574 C 46.3867 -53.8574 47.8027 -52.3926 47.8027 -50.6348 C 47.8027 -48.9746 46.3867 -47.4609 44.6289 -47.4609 C 42.9199 -47.4609 41.4551 -48.9746 41.4551 -50.6348 Z"/>
  </g>
  <g id="Medium-S" transform="matrix(1 0 0 1 1699.83 696)">
   <path d="M 46.7285 4.63867 C 68.5547 4.63867 86.6211 -13.4277 86.6211 -35.2539 C 86.6211 -57.0312 68.5059 -75.1465 46.6797 -75.1465 C 24.8535 -75.1465 6.83594 -57.0312 6.83594 -35.2539 C 6.83594 -13.4277 24.9023 4.63867 46.7285 4.63867 Z M 46.7285 -4.00391 C 29.3945 -4.00391 15.5273 -17.9199 15.5273 -35.2539 C 15.5273 -52.5879 29.3457 -66.4551 46.6797 -66.4551 C 64.0137 -66.4551 77.8809 -52.5879 77.9297 -35.2539 C 77.9785 -17.9199 64.0625 -4.00391 46.7285 -4.00391 Z M 37.3047 -48.6816 C 37.3047 -44.6289 39.8438 -41.1621 43.4082 -39.8926 L 43.4082 -22.6562 C 43.4082 -17.1875 44.6289 -11.6211 46.6797 -11.6211 C 48.7305 -11.6211 49.9023 -17.0898 49.9023 -22.6562 L 49.9023 -39.8438 C 53.5156 -41.1133 56.0547 -44.5801 56.0547 -48.6816 C 56.0547 -53.8086 51.8555 -58.0566 46.6797 -58.0078 C 41.5039 -58.0078 37.3047 -53.8086 37.3047 -48.6816 Z M 41.2598 -51.0254 C 41.2598 -52.6855 42.6758 -54.1016 44.2871 -54.1016 C 45.9473 -54.1016 47.3633 -52.6855 47.3633 -51.0254 C 47.3633 -49.4141 45.9473 -47.998 44.2871 -47.998 C 42.6758 -47.998 41.2598 -49.4141 41.2598 -51.0254 Z"/>
  </g>
  <g id="Regular-S" transform="matrix(1 0 0 1 1403.58 696)">
   <path d="M 46.2402 4.15039 C 67.7734 4.15039 85.6934 -13.7207 85.6934 -35.2539 C 85.6934 -56.7871 67.7246 -74.6582 46.1914 -74.6582 C 24.707 -74.6582 6.83594 -56.7871 6.83594 -35.2539 C 6.83594 -13.7207 24.7559 4.15039 46.2402 4.15039 Z M 46.2402 -3.27148 C 28.5156 -3.27148 14.3555 -17.4805 14.3555 -35.2539 C 14.3555 -53.0273 28.4668 -67.2363 46.1914 -67.2363 C 63.9648 -67.2363 78.1738 -53.0273 78.2227 -35.2539 C 78.2715 -17.4805 64.0137 -3.27148 46.2402 -3.27148 Z M 37.1094 -49.1699 C 37.1094 -45.2148 39.6484 -41.8457 43.2129 -40.5762 L 43.2129 -23.1445 C 43.2129 -17.1387 44.1895 -11.4258 46.1914 -11.4258 C 48.2422 -11.4258 49.1699 -17.041 49.1699 -23.1445 L 49.1699 -40.5762 C 52.7832 -41.7969 55.3223 -45.166 55.3223 -49.1699 C 55.3223 -54.1992 51.2207 -58.3008 46.1914 -58.3008 C 41.2109 -58.3008 37.1094 -54.1992 37.1094 -49.1699 Z M 41.0156 -51.5137 C 41.0156 -53.0762 42.334 -54.3945 43.8477 -54.3945 C 45.459 -54.3945 46.7285 -53.0762 46.7285 -51.5137 C 46.7285 -50 45.459 -48.6328 43.8477 -48.6328 C 42.334 -48.6328 41.0156 -50 41.0156 -51.5137 Z"/>
  </g>
  <g id="Light-S" transform="matrix(1 0 0 1 1107.6 696)">
   <path d="M 45.5078 3.4668 C 66.6992 3.4668 84.2285 -14.0625 84.2285 -35.2051 C 84.2285 -56.3965 66.6504 -73.9258 45.5078 -73.9258 C 24.3164 -73.9258 6.83594 -56.3965 6.83594 -35.2051 C 6.83594 -14.0625 24.3652 3.4668 45.5078 3.4668 Z M 45.5078 -2.24609 C 27.2461 -2.24609 12.5977 -16.9434 12.5977 -35.2051 C 12.5977 -53.5156 27.1973 -68.2129 45.5078 -68.2129 C 63.7695 -68.2129 78.4668 -53.5156 78.5156 -35.2051 C 78.5156 -16.9434 63.8184 -2.24609 45.5078 -2.24609 Z M 37.1094 -49.8535 C 37.1094 -46.0449 39.6484 -42.8223 43.1641 -41.8457 L 43.1641 -21.1426 C 43.1641 -15.8691 43.9941 -11.4746 45.5078 -11.4746 C 47.0215 -11.4746 47.8027 -15.8203 47.8027 -21.1426 L 47.8027 -41.8457 C 51.3184 -42.7734 53.9062 -45.9961 53.9062 -49.8535 C 53.9062 -54.4922 50.1465 -58.252 45.5078 -58.252 C 40.8691 -58.252 37.1094 -54.4922 37.1094 -49.8535 Z M 40.625 -52.002 C 40.5762 -53.4668 41.8945 -54.7363 43.3105 -54.7363 C 44.8242 -54.7363 46.0449 -53.4668 46.0449 -52.002 C 45.9961 -50.5859 44.8242 -49.3164 43.3105 -49.3164 C 41.8945 -49.3164 40.625 -50.5859 40.625 -52.002 Z"/>
  </g>
  <g id="Thin-S" transform="matrix(1 0 0 1 811.867 696)">
   <path d="M 44.5801 2.53906 C 65.2832 2.53906 82.2754 -14.4531 82.2754 -35.2051 C 82.2754 -55.9082 65.2344 -72.9004 44.5312 -72.9004 C 23.8281 -72.9004 6.83594 -55.9082 6.83594 -35.2051 C 6.83594 -14.4531 23.877 2.53906 44.5801 2.53906 Z M 44.5801 -0.878906 C 25.5859 -0.878906 10.2539 -16.2109 10.2539 -35.2051 C 10.2539 -54.1504 25.5859 -69.4824 44.5312 -69.4824 C 63.5254 -69.4824 78.8574 -54.1504 78.8574 -35.2051 C 78.8574 -16.2109 63.5254 -0.878906 44.5801 -0.878906 Z M 37.0605 -50.7324 C 37.0605 -47.1191 39.6484 -44.1406 43.0664 -43.457 L 43.0664 -18.5059 C 43.0664 -14.2578 43.7012 -11.5234 44.5312 -11.5234 C 45.4102 -11.5234 45.9961 -14.209 45.9961 -18.5059 L 45.9961 -43.457 C 49.4629 -44.1406 52.002 -47.1191 52.002 -50.7324 C 52.002 -54.834 48.6816 -58.2031 44.5312 -58.2031 C 40.4297 -58.2031 37.0605 -54.834 37.0605 -50.7324 Z M 40.1367 -52.6367 C 40.0879 -54.0527 41.3086 -55.1758 42.627 -55.1758 C 43.9941 -55.1758 45.1172 -54.0527 45.0684 -52.6367 C 45.0684 -51.3184 43.9941 -50.1953 42.627 -50.1953 C 41.3086 -50.1953 40.1367 -51.3184 40.1367 -52.6367 Z"/>
  </g>
  <g id="Ultralight-S" transform="matrix(1 0 0 1 515.644 696)">
   <path d="M 44.043 2.05078 C 64.502 2.05078 81.2988 -14.6973 81.2988 -35.1562 C 81.2988 -55.6152 64.502 -72.3633 44.043 -72.3633 C 23.584 -72.3633 6.83594 -55.6152 6.83594 -35.1562 C 6.83594 -14.6973 23.584 2.05078 44.043 2.05078 Z M 44.043 -0.146484 C 24.7559 -0.146484 9.08203 -15.8691 9.08203 -35.1562 C 9.08203 -54.4434 24.7559 -70.166 44.043 -70.166 C 63.3789 -70.166 79.0527 -54.4434 79.0527 -35.1562 C 79.0527 -15.8691 63.3789 -0.146484 44.043 -0.146484 Z M 37.0605 -51.1719 C 37.0605 -47.6562 39.6484 -44.8242 43.0176 -44.2871 L 43.0176 -17.1387 C 43.0176 -13.4277 43.5547 -11.5723 44.043 -11.5723 C 44.5801 -11.5723 45.0684 -13.3789 45.0684 -17.1387 L 45.0684 -44.2871 C 48.4863 -44.8242 51.0742 -47.6562 51.0742 -51.1719 C 51.0742 -55.0293 47.9492 -58.1543 44.043 -58.1543 C 40.1855 -58.1543 37.0605 -55.0293 37.0605 -51.1719 Z M 39.8438 -52.9785 C 39.7949 -54.3457 40.9668 -55.4199 42.2852 -55.4199 C 43.5547 -55.4199 44.6289 -54.3457 44.5801 -52.9785 C 44.5312 -51.709 43.5547 -50.6348 42.2852 -50.6348 C 40.9668 -50.6348 39.8926 -51.709 39.8438 -52.9785 Z"/>
  </g>
 </g>
</svg>
